<svg width="224" height="126" viewBox="0 0 224 126" fill="none" xmlns="http://www.w3.org/2000/svg">
<path d="M210.549 0H0V112.647L13.4513 126H224V13.3527C218.742 8.13316 215.807 5.20793 210.549 0ZM2.91689 77.1073V2.88393H209.347L213.372 6.89931L221.083 14.5535V77.0693L2.91689 77.1073Z" fill="black"/>
<path d="M28.1825 33.28V30.08H16.1825V49.216H19.5425V41.312H27.6065V38.112H19.5425V33.28H28.1825ZM45.563 37.312V34.496C45.563 33.824 45.371 33.12 44.987 32.544C44.699 32.128 43.707 31.104 43.259 30.784C42.619 30.336 41.755 30.08 40.987 30.08H31.995V49.216H35.355V41.664H39.035L42.587 49.216H46.235L42.427 41.408C42.715 41.312 43.003 41.152 43.259 40.96C43.707 40.64 44.699 39.68 44.987 39.264C45.371 38.688 45.563 38.016 45.563 37.312ZM42.203 37.28C42.203 37.344 42.171 37.408 42.171 37.408C41.915 37.856 41.275 38.464 40.987 38.464H35.355V33.28H41.147C41.467 33.312 41.979 33.952 42.171 34.304C42.203 34.368 42.203 34.528 42.203 34.528V37.28ZM62.5583 49.216V46.016H53.8863V41.312H61.9503V38.112H53.8863V33.28H62.5583V30.08H50.5263V49.216H62.5583ZM79.0583 49.216V46.016H70.3863V41.312H78.4503V38.112H70.3863V33.28H79.0583V30.08H67.0263V49.216H79.0583ZM94.4175 34.656C94.4175 34.656 94.4175 34.592 94.4495 34.528C94.8335 33.92 95.5375 33.344 95.8895 33.152C95.8895 33.152 95.9535 33.12 96.0495 33.12H100.402C100.434 33.12 100.53 33.12 100.562 33.152C101.362 33.664 102.066 34.624 102.066 34.624L105.298 33.696C105.138 33.312 104.882 32.928 104.626 32.576C103.794 31.392 102.45 29.92 100.562 29.92H95.8895C95.1855 29.92 94.4175 30.144 93.9055 30.464C93.2335 30.848 91.9535 32.224 91.5695 32.768C91.1855 33.344 91.0575 33.984 91.0575 34.592V44.704C91.0575 45.312 91.1855 45.984 91.5695 46.56C91.9535 47.136 93.2335 48.416 93.9055 48.8C94.4175 49.12 95.1855 49.376 95.8895 49.376H100.562C101.298 49.376 102.098 48.768 102.546 48.448L102.706 49.216H106.002C105.618 46.848 105.394 44.736 105.394 44.736V38.272H97.9055V41.472H102.034V44.576C102.034 44.96 101.01 45.888 100.562 46.144C100.562 46.144 100.498 46.176 100.402 46.176H96.0495C95.9535 46.176 95.9215 46.144 95.8895 46.144C95.4415 45.888 94.4175 45.056 94.4175 44.672V34.656ZM124.743 44.672V34.656C124.743 34.048 124.615 33.408 124.231 32.832C123.815 32.288 122.567 30.912 121.895 30.528C121.383 30.208 120.583 29.952 119.911 29.952H115.047C114.343 29.952 113.575 30.208 113.063 30.528C112.391 30.912 111.111 32.288 110.727 32.832C110.343 33.408 110.215 34.048 110.215 34.656V44.672C110.215 45.28 110.343 45.92 110.727 46.496C111.111 47.04 112.391 48.416 113.063 48.8C113.575 49.12 114.343 49.376 115.047 49.376H119.911C120.583 49.376 121.383 49.12 121.895 48.8C122.567 48.416 123.815 47.04 124.231 46.496C124.615 45.92 124.743 45.28 124.743 44.672ZM113.575 34.752C113.575 34.752 113.575 34.656 113.607 34.592C113.991 34.016 114.663 33.376 115.015 33.184C115.047 33.152 115.175 33.152 115.175 33.152H119.783C119.815 33.152 119.879 33.152 119.943 33.184C120.295 33.376 120.967 34.016 121.351 34.592C121.383 34.624 121.383 34.752 121.383 34.752V44.64C121.383 44.64 121.383 44.704 121.351 44.768C120.967 45.344 120.295 45.952 119.943 46.144C119.879 46.176 119.783 46.176 119.783 46.176H115.175C115.143 46.176 115.079 46.176 115.015 46.144C114.663 45.952 113.991 45.344 113.607 44.768C113.575 44.736 113.575 44.64 113.575 44.64V34.752ZM143.586 44.672V34.656C143.586 34.048 143.458 33.408 143.074 32.832C142.658 32.288 141.41 30.912 140.738 30.528C140.226 30.208 139.426 29.952 138.754 29.952H133.89C133.186 29.952 132.418 30.208 131.906 30.528C131.234 30.912 129.954 32.288 129.57 32.832C129.186 33.408 129.058 34.048 129.058 34.656V44.672C129.058 45.28 129.186 45.92 129.57 46.496C129.954 47.04 131.234 48.416 131.906 48.8C132.418 49.12 133.186 49.376 133.89 49.376H138.754C139.426 49.376 140.226 49.12 140.738 48.8C141.41 48.416 142.658 47.04 143.074 46.496C143.458 45.92 143.586 45.28 143.586 44.672ZM132.418 34.752C132.418 34.752 132.418 34.656 132.45 34.592C132.834 34.016 133.506 33.376 133.858 33.184C133.89 33.152 134.018 33.152 134.018 33.152H138.626C138.658 33.152 138.722 33.152 138.786 33.184C139.138 33.376 139.81 34.016 140.194 34.592C140.226 34.624 140.226 34.752 140.226 34.752V44.64C140.226 44.64 140.226 44.704 140.194 44.768C139.81 45.344 139.138 45.952 138.786 46.144C138.722 46.176 138.626 46.176 138.626 46.176H134.018C133.986 46.176 133.922 46.176 133.858 46.144C133.506 45.952 132.834 45.344 132.45 44.768C132.418 44.736 132.418 44.64 132.418 44.64V34.752ZM161.406 44.576V34.784C161.406 34.176 161.31 33.536 160.894 32.96C160.51 32.416 159.294 31.04 158.59 30.624C158.046 30.272 157.246 30.08 156.638 30.08H147.87V49.216H156.638C157.31 49.216 158.046 48.928 158.558 48.64C159.262 48.256 160.542 46.976 160.926 46.4C161.31 45.824 161.406 45.152 161.406 44.576ZM151.23 46.016V33.28H156.318C156.382 33.28 156.574 33.28 156.606 33.312C156.99 33.504 157.63 34.08 158.014 34.72C158.046 34.784 158.046 34.88 158.046 34.88V44.512C158.046 44.896 157.086 45.728 156.638 45.984C156.606 46.016 156.414 46.016 156.414 46.016H151.23ZM169.261 49.216V30.08H165.901V49.216H169.261ZM185.902 49.216V46.016H177.23V41.312H185.294V38.112H177.23V33.28H185.902V30.08H173.87V49.216H185.902ZM204.514 44.672V42.656C204.514 41.216 203.65 39.616 202.018 39.168L193.666 36.736C193.506 36.704 193.314 36.48 193.314 36.192V34.592C193.314 34.336 194.178 33.44 194.69 33.184C194.69 33.184 194.754 33.152 194.882 33.152H199.394C199.554 33.152 199.586 33.184 199.586 33.184C200.258 33.6 200.994 34.656 200.994 34.656L204.226 33.728C204.002 33.248 203.842 32.96 203.586 32.608C202.754 31.52 201.442 29.952 199.522 29.952H194.786C194.082 29.952 193.314 30.24 192.802 30.528C192.13 30.912 190.818 32.256 190.434 32.832C190.05 33.408 189.954 34.112 189.954 34.656V36.384C189.954 37.856 190.818 39.424 192.45 39.872L200.77 42.24C200.93 42.272 201.154 42.496 201.154 42.784V44.672C201.154 44.928 200.194 45.888 199.714 46.144C199.714 46.144 199.65 46.176 199.522 46.176H194.274C194.114 46.176 194.05 46.144 194.05 46.144C193.282 45.568 192.642 44.672 192.642 44.672L189.474 45.728C189.73 46.208 189.794 46.368 190.05 46.72C190.882 47.84 192.226 49.376 194.114 49.376H199.682C200.354 49.376 201.154 49.088 201.666 48.8C202.338 48.416 203.618 47.072 204.002 46.496C204.418 45.92 204.514 45.216 204.514 44.672Z" fill="black"/>
<path d="M34.357 100.467L27.868 94.209H24.97L30.493 99.438H20.917V101.475H30.43L24.991 106.683H27.868L34.357 100.467ZM50.2336 103.659V97.233C50.2336 96.834 50.1706 96.414 49.8976 96.036C49.6456 95.679 48.8476 94.776 48.3856 94.503C48.0286 94.272 47.5036 94.146 47.1046 94.146H41.3506V106.704H47.1046C47.5456 106.704 48.0286 106.515 48.3646 106.326C48.8266 106.074 49.6666 105.234 49.9186 104.856C50.1706 104.478 50.2336 104.037 50.2336 103.659ZM43.5556 104.604V96.246H46.8946C46.9366 96.246 47.0626 96.246 47.0836 96.267C47.3356 96.393 47.7556 96.771 48.0076 97.191C48.0286 97.233 48.0286 97.296 48.0286 97.296V103.617C48.0286 103.869 47.3986 104.415 47.1046 104.583C47.0836 104.604 46.9576 104.604 46.9576 104.604H43.5556ZM62.7386 103.722V97.149C62.7386 96.75 62.6546 96.33 62.4026 95.952C62.1296 95.595 61.3106 94.692 60.8696 94.44C60.5336 94.23 60.0086 94.062 59.5676 94.062H56.3756C55.9136 94.062 55.4096 94.23 55.0736 94.44C54.6326 94.692 53.7926 95.595 53.5406 95.952C53.2886 96.33 53.2046 96.75 53.2046 97.149V103.722C53.2046 104.121 53.2886 104.541 53.5406 104.919C53.7926 105.276 54.6326 106.179 55.0736 106.431C55.4096 106.641 55.9136 106.809 56.3756 106.809H59.5676C60.0086 106.809 60.5336 106.641 60.8696 106.431C61.3106 106.179 62.1296 105.276 62.4026 104.919C62.6546 104.541 62.7386 104.121 62.7386 103.722ZM55.4096 97.212C55.4096 97.212 55.4096 97.149 55.4306 97.107C55.6826 96.729 56.1236 96.309 56.3546 96.183C56.3756 96.162 56.4596 96.162 56.4596 96.162H59.4836C59.5046 96.162 59.5466 96.162 59.5886 96.183C59.8196 96.309 60.2606 96.729 60.5126 97.107C60.5336 97.128 60.5336 97.212 60.5336 97.212V103.701C60.5336 103.701 60.5336 103.743 60.5126 103.785C60.2606 104.163 59.8196 104.562 59.5886 104.688C59.5466 104.709 59.4836 104.709 59.4836 104.709H56.4596C56.4386 104.709 56.3966 104.709 56.3546 104.688C56.1236 104.562 55.6826 104.163 55.4306 103.785C55.4096 103.764 55.4096 103.701 55.4096 103.701V97.212ZM79.3678 94.146H77.0368L75.1678 102.966L73.0888 94.146H70.7368L68.6578 102.966L66.7678 94.146H64.4998L67.3768 106.704H69.8968L71.9338 98.283L73.9498 106.704H76.4488L79.3678 94.146ZM89.9367 106.704V94.146H87.7317V102.588L83.4267 94.146H81.0537V106.704H83.2587V98.367L87.6057 106.704H89.9367ZM100.739 106.704V104.604H95.1738V94.146H92.9688V106.704H100.739ZM112.614 103.722V97.149C112.614 96.75 112.53 96.33 112.278 95.952C112.005 95.595 111.186 94.692 110.745 94.44C110.409 94.23 109.884 94.062 109.443 94.062H106.251C105.789 94.062 105.285 94.23 104.949 94.44C104.508 94.692 103.668 95.595 103.416 95.952C103.164 96.33 103.08 96.75 103.08 97.149V103.722C103.08 104.121 103.164 104.541 103.416 104.919C103.668 105.276 104.508 106.179 104.949 106.431C105.285 106.641 105.789 106.809 106.251 106.809H109.443C109.884 106.809 110.409 106.641 110.745 106.431C111.186 106.179 112.005 105.276 112.278 104.919C112.53 104.541 112.614 104.121 112.614 103.722ZM105.285 97.212C105.285 97.212 105.285 97.149 105.306 97.107C105.558 96.729 105.999 96.309 106.23 96.183C106.251 96.162 106.335 96.162 106.335 96.162H109.359C109.38 96.162 109.422 96.162 109.464 96.183C109.695 96.309 110.136 96.729 110.388 97.107C110.409 97.128 110.409 97.212 110.409 97.212V103.701C110.409 103.701 110.409 103.743 110.388 103.785C110.136 104.163 109.695 104.562 109.464 104.688C109.422 104.709 109.359 104.709 109.359 104.709H106.335C106.314 104.709 106.272 104.709 106.23 104.688C105.999 104.562 105.558 104.163 105.306 103.785C105.285 103.764 105.285 103.701 105.285 103.701V97.212ZM125.316 106.704L120.948 94.146H118.386L113.997 106.704H116.349L117.273 104.037H122.04L122.964 106.704H125.316ZM121.347 101.937H117.966L119.667 96.981L121.347 101.937ZM135.833 103.659V97.233C135.833 96.834 135.77 96.414 135.497 96.036C135.245 95.679 134.447 94.776 133.985 94.503C133.628 94.272 133.103 94.146 132.704 94.146H126.95V106.704H132.704C133.145 106.704 133.628 106.515 133.964 106.326C134.426 106.074 135.266 105.234 135.518 104.856C135.77 104.478 135.833 104.037 135.833 103.659ZM129.155 104.604V96.246H132.494C132.536 96.246 132.662 96.246 132.683 96.267C132.935 96.393 133.355 96.771 133.607 97.191C133.628 97.233 133.628 97.296 133.628 97.296V103.617C133.628 103.869 132.998 104.415 132.704 104.583C132.683 104.604 132.557 104.604 132.557 104.604H129.155ZM152.609 106.704V94.146H150.404V102.588L146.099 94.146H143.726V106.704H145.931V98.367L150.278 106.704H152.609ZM165.196 103.722V97.149C165.196 96.75 165.112 96.33 164.86 95.952C164.587 95.595 163.768 94.692 163.327 94.44C162.991 94.23 162.466 94.062 162.025 94.062H158.833C158.371 94.062 157.867 94.23 157.531 94.44C157.09 94.692 156.25 95.595 155.998 95.952C155.746 96.33 155.662 96.75 155.662 97.149V103.722C155.662 104.121 155.746 104.541 155.998 104.919C156.25 105.276 157.09 106.179 157.531 106.431C157.867 106.641 158.371 106.809 158.833 106.809H162.025C162.466 106.809 162.991 106.641 163.327 106.431C163.768 106.179 164.587 105.276 164.86 104.919C165.112 104.541 165.196 104.121 165.196 103.722ZM157.867 97.212C157.867 97.212 157.867 97.149 157.888 97.107C158.14 96.729 158.581 96.309 158.812 96.183C158.833 96.162 158.917 96.162 158.917 96.162H161.941C161.962 96.162 162.004 96.162 162.046 96.183C162.277 96.309 162.718 96.729 162.97 97.107C162.991 97.128 162.991 97.212 162.991 97.212V103.701C162.991 103.701 162.991 103.743 162.97 103.785C162.718 104.163 162.277 104.562 162.046 104.688C162.004 104.709 161.941 104.709 161.941 104.709H158.917C158.896 104.709 158.854 104.709 158.812 104.688C158.581 104.562 158.14 104.163 157.888 103.785C157.867 103.764 157.867 103.701 157.867 103.701V97.212ZM181.825 94.146H179.494L177.625 102.966L175.546 94.146H173.194L171.115 102.966L169.225 94.146H166.957L169.834 106.704H172.354L174.391 98.283L176.407 106.704H178.906L181.825 94.146ZM200.696 101.475V99.438H191.099L196.622 94.209H193.724L187.256 100.467L193.724 106.683H196.622L191.162 101.475H200.696Z" fill="#02D8F3"/>
</svg>
